<mxfile host="app.diagrams.net" modified="2022-09-11T02:26:55.983Z" agent="5.0 (Windows NT 6.1; Win64; x64) AppleWebKit/537.36 (KHTML, like Gecko) Chrome/100.0.4896.127 Safari/537.36" etag="0Y31E3xlEi-ueZcQCHvQ" version="20.2.3" type="github">
  <diagram id="dauTrBxMCGEYSifXwEzD" name="第 1 页">
    <mxGraphModel dx="1422" dy="800" grid="1" gridSize="10" guides="1" tooltips="1" connect="1" arrows="1" fold="1" page="1" pageScale="1" pageWidth="827" pageHeight="1169" math="0" shadow="0">
      <root>
        <mxCell id="0" />
        <mxCell id="1" parent="0" />
        <mxCell id="G9VbaGDZInSEjSwB8AWt-3" value="" style="edgeStyle=orthogonalEdgeStyle;rounded=0;orthogonalLoop=1;jettySize=auto;html=1;" edge="1" parent="1" source="G9VbaGDZInSEjSwB8AWt-1" target="G9VbaGDZInSEjSwB8AWt-2">
          <mxGeometry relative="1" as="geometry" />
        </mxCell>
        <mxCell id="G9VbaGDZInSEjSwB8AWt-1" value="进出口" style="ellipse;whiteSpace=wrap;html=1;" vertex="1" parent="1">
          <mxGeometry x="320" y="290" width="94" height="50" as="geometry" />
        </mxCell>
        <mxCell id="G9VbaGDZInSEjSwB8AWt-2" value="航运" style="ellipse;whiteSpace=wrap;html=1;" vertex="1" parent="1">
          <mxGeometry x="494" y="290" width="94" height="50" as="geometry" />
        </mxCell>
        <mxCell id="G9VbaGDZInSEjSwB8AWt-4" value="人民币升贬值" style="ellipse;whiteSpace=wrap;html=1;" vertex="1" parent="1">
          <mxGeometry x="150" y="290" width="94" height="50" as="geometry" />
        </mxCell>
      </root>
    </mxGraphModel>
  </diagram>
</mxfile>
